<?xml version="1.0" standalone="no"?>
<!DOCTYPE svg PUBLIC "-//W3C//DTD SVG 1.1//EN"
  "http://www.w3.org/Graphics/SVG/1.1/DTD/svg11.dtd">
<svg width="390mm" height="238.99999999999994mm" viewBox="-195 -152.99999999999997 390 238.99999999999994" xmlns="http://www.w3.org/2000/svg" version="1.1">
	<title>svgOutput</title>
	<desc>made with tinkercad</desc>
<path d="M -101 -151.99999999999997 L 69 -151.99999999999997 L 69 -84.99999999999999 L 69 -81.99999999999999 L 69 -76.49999999999999 L 69 -65.53600311279295 L 69 -58.499999999999986 L 69 -45.99999999999999 L 65.53600311279297 -45.99999999999999 L 0 -45.99999999999999 L -65.53600311279297 -45.99999999999999 L -101 -45.99999999999999 L -101 -65.53600311279295 L -101 -84.99999999999999 L -101 -151.99999999999997 M 191 -81.99999999999999 L 191 -76.49999999999999 L 194 -76.49999999999999 L 194 -67.49999999999999 L 191 -67.49999999999999 L 191 -65.53600311279295 L 191 -58.499999999999986 L 194 -58.499999999999986 L 194 -49.499999999999986 L 191 -49.499999999999986 L 191 -40.49999999999999 L 194 -40.49999999999999 L 194 -31.499999999999993 L 191 -31.499999999999993 L 191 -22.499999999999996 L 194 -22.499999999999996 L 194 -13.499999999999996 L 191 -13.499999999999996 L 191 -4.499999999999999 L 194 -4.499999999999999 L 194 1.1102230246251565e-16 L 194 4.499999999999999 L 191 4.499999999999999 L 191 13.499999999999996 L 194 13.499999999999996 L 194 22.499999999999996 L 191 22.499999999999996 L 191 31.499999999999993 L 194 31.499999999999993 L 194 40.49999999999999 L 191 40.49999999999999 L 191 49.499999999999986 L 194 49.499999999999986 L 194 58.499999999999986 L 191 58.499999999999986 L 191 65.53600311279295 L 191 67.49999999999999 L 194 67.49999999999999 L 194 76.49999999999999 L 191 76.49999999999999 L 191 81.99999999999999 L 181.5 81.99999999999999 L 181.5 84.99999999999999 L 172.5 84.99999999999999 L 172.5 81.99999999999999 L 163.5 81.99999999999999 L 163.5 84.99999999999999 L 154.5 84.99999999999999 L 154.5 81.99999999999999 L 145.5 81.99999999999999 L 145.5 84.99999999999999 L 136.5 84.99999999999999 L 136.5 81.99999999999999 L 131.07200622558594 81.99999999999999 L 127.5 81.99999999999999 L 127.5 84.99999999999999 L 118.5 84.99999999999999 L 118.5 81.99999999999999 L 109.5 81.99999999999999 L 109.5 84.99999999999999 L 100.5 84.99999999999999 L 100.5 81.99999999999999 L 98.30400085449219 81.99999999999999 L 91 81.99999999999999 L 91 77.99999999999999 L 91 76.49999999999999 L 88 76.49999999999999 L 88 67.49999999999999 L 91 67.49999999999999 L 91 65.53600311279295 L 91 58.499999999999986 L 88 58.499999999999986 L 88 49.499999999999986 L 91 49.499999999999986 L 91 40.49999999999999 L 88 40.49999999999999 L 88 32.76800155639648 L 88 31.499999999999993 L 91 31.499999999999993 L 91 25.999999999999993 L 91 22.499999999999996 L 88 22.499999999999996 L 88 16.38400077819824 L 88 15.999999999999996 L 88 13.499999999999996 L 91 13.499999999999996 L 91 4.499999999999999 L 88 4.499999999999999 L 88 1.1102230246251565e-16 L 88 -1.9999999999999996 L 88 -4.499999999999999 L 91 -4.499999999999999 L 91 -13.499999999999996 L 88 -13.499999999999996 L 88 -16.38400077819824 L 88 -22.499999999999996 L 91 -22.499999999999996 L 91 -31.499999999999993 L 88 -31.499999999999993 L 88 -32.76800155639648 L 88 -35.99999999999999 L 88 -40.49999999999999 L 91 -40.49999999999999 L 91 -49.499999999999986 L 88 -49.499999999999986 L 88 -58.499999999999986 L 91 -58.499999999999986 L 91 -65.53600311279295 L 91 -67.49999999999999 L 88 -67.49999999999999 L 88 -76.49999999999999 L 91 -76.49999999999999 L 91 -81.99999999999999 L 100.5 -81.99999999999999 L 100.5 -84.99999999999999 L 109.5 -84.99999999999999 L 109.5 -81.99999999999999 L 118.5 -81.99999999999999 L 118.5 -84.99999999999999 L 127.5 -84.99999999999999 L 127.5 -81.99999999999999 L 131.07200622558594 -81.99999999999999 L 136.5 -81.99999999999999 L 136.5 -84.99999999999999 L 145.5 -84.99999999999999 L 145.5 -81.99999999999999 L 154.5 -81.99999999999999 L 154.5 -84.99999999999999 L 163.5 -84.99999999999999 L 163.5 -81.99999999999999 L 172.5 -81.99999999999999 L 172.5 -84.99999999999999 L 181.5 -84.99999999999999 L 181.5 -81.99999999999999 L 191 -81.99999999999999 M 82 -35.99999999999999 L 82 -32.76800155639648 L 82 -31.499999999999993 L 82 -28.999999999999993 L 85 -28.999999999999993 L 85 -22.499999999999996 L 85 -19.999999999999996 L 82 -19.999999999999996 L 82 -16.38400077819824 L 82 -10.999999999999998 L 85 -10.999999999999998 L 85 -1.9999999999999996 L 82 -1.9999999999999996 L 82 1.1102230246251565e-16 L 82 6.999999999999998 L 85 6.999999999999998 L 85 15.999999999999996 L 82 15.999999999999996 L 82 16.38400077819824 L 82 22.999999999999996 L 76.5 22.999999999999996 L 76.5 19.999999999999996 L 67.5 19.999999999999996 L 67.5 22.999999999999996 L 65.53600311279297 22.999999999999996 L 58.5 22.999999999999996 L 58.5 19.999999999999996 L 49.5 19.999999999999996 L 49.5 22.999999999999996 L 40.5 22.999999999999996 L 40.5 19.999999999999996 L 31.5 19.999999999999996 L 31.5 22.999999999999996 L 22.5 22.999999999999996 L 22.5 19.999999999999996 L 13.5 19.999999999999996 L 13.5 22.999999999999996 L 4.5 22.999999999999996 L 4.5 19.999999999999996 L 0 19.999999999999996 L -4.5 19.999999999999996 L -4.5 22.999999999999996 L -13.5 22.999999999999996 L -13.5 19.999999999999996 L -22.5 19.999999999999996 L -22.5 22.999999999999996 L -31.5 22.999999999999996 L -31.5 19.999999999999996 L -40.5 19.999999999999996 L -40.5 22.999999999999996 L -49.5 22.999999999999996 L -49.5 19.999999999999996 L -58.5 19.999999999999996 L -58.5 22.999999999999996 L -65.53600311279297 22.999999999999996 L -67.5 22.999999999999996 L -67.5 19.999999999999996 L -76.5 19.999999999999996 L -76.5 22.999999999999996 L -82 22.999999999999996 L -82 19.999999999999996 L -82 16.38400077819824 L -82 15.999999999999996 L -85 15.999999999999996 L -85 6.999999999999998 L -82 6.999999999999998 L -82 1.1102230246251565e-16 L -82 -1.9999999999999996 L -85 -1.9999999999999996 L -85 -10.999999999999998 L -82 -10.999999999999998 L -82 -16.38400077819824 L -82 -19.999999999999996 L -85 -19.999999999999996 L -85 -28.999999999999993 L -82 -28.999999999999993 L -82 -32.76800155639648 L -82 -35.99999999999999 L -65.53600311279297 -35.99999999999999 L 0 -35.99999999999999 L 65.53600311279297 -35.99999999999999 L 69 -35.99999999999999 L 82 -35.99999999999999 M 85 59.999999999999986 L 82 59.999999999999986 L 82 65.53600311279295 L 82 67.49999999999999 L 82 68.99999999999999 L 85 68.99999999999999 L 85 77.99999999999999 L 82 77.99999999999999 L 82 81.99999999999999 L 82 84.99999999999999 L 76.5 84.99999999999999 L 76.5 81.99999999999999 L 67.5 81.99999999999999 L 67.5 84.99999999999999 L 65.53600311279297 84.99999999999999 L 58.5 84.99999999999999 L 58.5 81.99999999999999 L 49.5 81.99999999999999 L 49.5 84.99999999999999 L 40.5 84.99999999999999 L 40.5 81.99999999999999 L 31.5 81.99999999999999 L 31.5 84.99999999999999 L 22.5 84.99999999999999 L 22.5 81.99999999999999 L 13.5 81.99999999999999 L 13.5 84.99999999999999 L 4.5 84.99999999999999 L 4.5 81.99999999999999 L 0 81.99999999999999 L -4.5 81.99999999999999 L -4.5 84.99999999999999 L -13.5 84.99999999999999 L -13.5 81.99999999999999 L -22.5 81.99999999999999 L -22.5 84.99999999999999 L -31.5 84.99999999999999 L -31.5 81.99999999999999 L -40.5 81.99999999999999 L -40.5 84.99999999999999 L -49.5 84.99999999999999 L -49.5 81.99999999999999 L -58.5 81.99999999999999 L -58.5 84.99999999999999 L -65.53600311279297 84.99999999999999 L -67.5 84.99999999999999 L -67.5 81.99999999999999 L -76.5 81.99999999999999 L -76.5 84.99999999999999 L -82 84.99999999999999 L -82 81.99999999999999 L -82 77.99999999999999 L -85 77.99999999999999 L -85 68.99999999999999 L -82 68.99999999999999 L -82 65.53600311279295 L -82 59.999999999999986 L -85 59.999999999999986 L -85 50.999999999999986 L -82 50.999999999999986 L -82 49.15200042724608 L -82 41.99999999999999 L -85 41.99999999999999 L -85 32.99999999999999 L -82 32.99999999999999 L -82 32.76800155639648 L -82 25.999999999999993 L -65.53600311279297 25.999999999999993 L 0 25.999999999999993 L 65.53600311279297 25.999999999999993 L 82 25.999999999999993 L 82 32.76800155639648 L 82 32.99999999999999 L 85 32.99999999999999 L 85 41.99999999999999 L 82 41.99999999999999 L 82 50.999999999999986 L 85 50.999999999999986 L 85 59.999999999999986 M -88 -19.999999999999996 L -88 -16.38400077819824 L -88 -10.999999999999998 L -91 -10.999999999999998 L -91 -1.9999999999999996 L -88 -1.9999999999999996 L -88 1.1102230246251565e-16 L -88 6.999999999999998 L -91 6.999999999999998 L -91 15.999999999999996 L -88 15.999999999999996 L -88 16.38400077819824 L -88 22.999999999999996 L -98.30400085449219 22.999999999999996 L -100.5 22.999999999999996 L -100.5 19.999999999999996 L -109.5 19.999999999999996 L -109.5 22.999999999999996 L -118.5 22.999999999999996 L -118.5 19.999999999999996 L -127.5 19.999999999999996 L -127.5 22.999999999999996 L -131.07200622558594 22.999999999999996 L -136.5 22.999999999999996 L -136.5 19.999999999999996 L -145.5 19.999999999999996 L -145.5 22.999999999999996 L -154.5 22.999999999999996 L -154.5 19.999999999999996 L -163.5 19.999999999999996 L -163.5 22.999999999999996 L -163.83999633789062 22.999999999999996 L -172.5 22.999999999999996 L -172.5 19.999999999999996 L -181.5 19.999999999999996 L -181.5 22.999999999999996 L -194 22.999999999999996 L -194 19.999999999999996 L -194 15.999999999999996 L -191 15.999999999999996 L -191 6.999999999999998 L -194 6.999999999999998 L -194 1.1102230246251565e-16 L -194 -1.9999999999999996 L -191 -1.9999999999999996 L -191 -10.999999999999998 L -194 -10.999999999999998 L -194 -19.999999999999996 L -191 -19.999999999999996 L -191 -28.999999999999993 L -194 -28.999999999999993 L -194 -35.99999999999999 L -191 -35.99999999999999 L -131.07200622558594 -35.99999999999999 L -101 -35.99999999999999 L -88 -35.99999999999999 L -88 -32.76800155639648 L -88 -28.999999999999993 L -91 -28.999999999999993 L -91 -19.999999999999996 L -88 -19.999999999999996 M -88 25.999999999999993 L -88 32.76800155639648 L -88 32.99999999999999 L -91 32.99999999999999 L -91 41.99999999999999 L -88 41.99999999999999 L -88 49.15200042724608 L -88 50.999999999999986 L -91 50.999999999999986 L -91 59.999999999999986 L -88 59.999999999999986 L -88 65.53600311279295 L -88 68.99999999999999 L -91 68.99999999999999 L -91 77.99999999999999 L -88 77.99999999999999 L -88 84.99999999999999 L -91 84.99999999999999 L -98.30400085449219 84.99999999999999 L -100.5 84.99999999999999 L -100.5 81.99999999999999 L -109.5 81.99999999999999 L -109.5 84.99999999999999 L -118.5 84.99999999999999 L -118.5 81.99999999999999 L -127.5 81.99999999999999 L -127.5 84.99999999999999 L -131.07200622558594 84.99999999999999 L -136.5 84.99999999999999 L -136.5 81.99999999999999 L -145.5 81.99999999999999 L -145.5 84.99999999999999 L -154.5 84.99999999999999 L -154.5 81.99999999999999 L -163.5 81.99999999999999 L -163.5 84.99999999999999 L -172.5 84.99999999999999 L -172.5 81.99999999999999 L -181.5 81.99999999999999 L -181.5 84.99999999999999 L -194 84.99999999999999 L -194 81.99999999999999 L -194 77.99999999999999 L -191 77.99999999999999 L -191 68.99999999999999 L -194 68.99999999999999 L -194 65.53600311279295 L -194 59.999999999999986 L -191 59.999999999999986 L -191 50.999999999999986 L -194 50.999999999999986 L -194 41.99999999999999 L -191 41.99999999999999 L -191 32.99999999999999 L -194 32.99999999999999 L -194 32.76800155639648 L -194 25.999999999999993 L -163.83999633789062 25.999999999999993 L -131.07200622558594 25.999999999999993 L -127.5 25.999999999999993 L -98.30400085449219 25.999999999999993 L -88 25.999999999999993 z" fill="none" stroke="rgb(255,0,0)" stroke-width="0.001mm" />
</svg>